<svg version="1.1" id="Layer_1" xmlns="http://www.w3.org/2000/svg" xmlns:xlink="http://www.w3.org/1999/xlink" x="0px" y="0px"
	 width="100%" viewBox="0 0 500 500" enable-background="new 0 0 500 500" xml:space="preserve">
<path fill="#FEFFFF" opacity="1.000000" stroke="none" 
	d="
M1.000000,394.000000 
	C1.000000,263.043762 1.000000,132.087524 1.000000,1.065648 
	C167.567200,1.065648 334.134430,1.065648 501.000000,1.065648 
	C501.000000,132.023178 501.000000,263.046570 500.729340,394.300537 
	C497.340332,382.446228 489.109985,375.996704 476.758545,375.996460 
	C326.151489,375.993591 175.544449,375.991699 24.937401,376.024017 
	C22.807775,376.024475 20.639372,376.285339 18.555338,376.733154 
	C9.082958,378.768341 4.278586,385.625793 1.000000,394.000000 
M87.849434,322.307831 
	C116.449158,306.488464 145.048874,290.669067 173.813385,274.758545 
	C196.859802,300.321228 219.705688,325.661499 242.554291,351.004761 
	C299.445862,323.941620 352.118042,290.020966 405.394287,257.028931 
	C410.012970,264.329163 414.407959,271.275879 419.412598,279.186157 
	C420.655884,276.820831 421.505463,275.641510 421.933411,274.325073 
	C428.657837,253.639420 435.264282,232.915115 442.071747,212.256958 
	C443.241302,208.707779 442.227142,207.571869 438.776154,206.974442 
	C416.977264,203.200867 395.208984,199.250732 373.415405,195.446045 
	C372.096161,195.215729 370.646210,195.734100 369.257080,195.904099 
	C369.597809,197.269394 369.635956,198.816757 370.329712,199.969635 
	C374.080475,206.203003 377.993591,212.338684 381.666016,218.212540 
	C337.116241,246.410172 292.751221,274.490875 247.877991,302.893250 
	C225.372055,280.907257 202.201324,258.271820 179.011749,235.617996 
	C138.706558,261.295258 98.938240,286.630493 59.103264,312.008179 
	C63.283737,318.958893 67.092453,325.291473 70.937012,331.683655 
	C76.771378,328.482971 82.009544,325.609344 87.849434,322.307831 
M183.943298,214.176758 
	C203.733704,233.490723 223.524109,252.804688 243.908661,272.698486 
	C243.908661,193.756592 243.908661,116.030426 243.908661,37.907215 
	C242.865616,38.276470 242.087219,38.446861 241.409821,38.807156 
	C222.473984,48.878845 203.514984,58.908562 184.689102,69.182121 
	C183.291916,69.944580 182.100388,72.478676 182.095001,74.193176 
	C181.954483,118.999702 181.968857,163.806793 182.041138,208.613632 
	C182.043854,210.297195 182.892151,211.979401 183.943298,214.176758 
M275.197998,249.483337 
	C275.197998,253.676773 275.197998,257.870209 275.197998,262.723083 
	C276.885956,261.775360 277.616180,261.404022 278.308044,260.971313 
	C296.637207,249.507324 314.917297,237.963654 333.333099,226.640717 
	C336.361511,224.778732 337.633453,222.872787 337.622223,219.198593 
	C337.483704,173.733002 337.534180,128.266815 337.521698,82.800797 
	C337.521271,81.222656 337.372101,79.644547 337.267029,77.568527 
	C335.352203,78.522835 334.024231,79.141167 332.735931,79.833290 
	C315.017853,89.352158 297.363007,98.991585 279.542084,108.313591 
	C276.021973,110.154930 275.102142,112.316040 275.113403,116.087257 
	C275.245331,160.220551 275.198029,204.354385 275.197998,249.483337 
M150.918671,204.500000 
	C150.918671,187.267242 150.918671,170.034485 150.918671,152.215118 
	C148.875900,153.214111 147.399963,153.881821 145.973221,154.641876 
	C128.235062,164.091675 110.549568,173.642181 92.728363,182.932449 
	C89.600021,184.563293 88.622612,186.438477 88.641449,189.862000 
	C88.779724,214.988220 88.707008,240.115570 88.721718,265.242554 
	C88.722626,266.800934 88.900711,268.359222 88.997238,269.931824 
	C89.774986,269.866180 90.159164,269.947998 90.395508,269.797577 
	C109.882988,257.395325 129.385208,245.015564 148.771698,232.457138 
	C149.959106,231.687927 150.780655,229.510605 150.824051,227.961884 
	C151.033722,220.479584 150.918610,212.988174 150.918671,204.500000 
z"/>
<path fill="#DDF7EA" opacity="1.000000" stroke="none" 
	d="
M1.000000,394.468658 
	C4.278586,385.625793 9.082958,378.768341 18.555338,376.733154 
	C20.639372,376.285339 22.807775,376.024475 24.937401,376.024017 
	C175.544449,375.991699 326.151489,375.993591 476.758545,375.996460 
	C489.109985,375.996704 497.340332,382.446228 500.729340,394.765564 
	C501.000000,413.687561 501.000000,432.375122 500.728668,451.747009 
	C495.686646,464.817047 488.221497,469.997742 475.118378,469.997833 
	C325.295410,469.998932 175.472366,470.042328 25.649782,469.805573 
	C20.676519,469.797729 14.887051,468.047424 10.959449,465.121033 
	C6.729256,461.969238 4.245615,456.473267 0.999993,452.000000 
	C1.000000,432.979095 1.000000,413.958221 1.000000,394.468658 
M284.753021,430.347382 
	C288.754059,440.127502 296.866486,442.603027 306.589111,437.013184 
	C309.920258,442.443298 314.857880,439.074768 319.252808,439.974060 
	C319.252808,424.755615 319.252808,410.212891 319.252808,395.459229 
	C314.791016,395.459229 311.019104,395.459229 306.772766,395.459229 
	C306.509094,399.321350 306.254852,403.045166 305.981506,407.048492 
	C304.519226,406.551575 303.447998,406.156799 302.358337,405.821991 
	C292.930847,402.925629 284.969238,407.925934 284.080841,417.653839 
	C283.722565,421.576416 284.327423,425.587006 284.753021,430.347382 
M358.895844,424.494415 
	C358.895844,414.903625 358.895844,405.312866 358.895844,395.588745 
	C353.779205,395.588745 349.899628,395.588745 345.700409,395.588745 
	C345.470215,399.515137 345.258850,403.120392 345.030884,407.008667 
	C343.334167,406.460571 341.956604,405.953491 340.545502,405.569916 
	C332.403046,403.356750 324.939148,407.377319 323.518219,415.539520 
	C322.712738,420.166290 322.819702,425.213104 323.752075,429.820557 
	C325.188324,436.918274 331.591461,440.927460 338.740692,439.847260 
	C341.225739,439.471802 343.559723,438.096649 345.792664,437.243134 
	C349.212128,442.358093 353.992188,438.997253 358.881836,440.198883 
	C358.881836,434.747192 358.881836,430.119415 358.895844,424.494415 
M129.334381,421.651459 
	C130.143799,438.314270 139.457047,444.315826 152.793259,436.768616 
	C154.279541,440.426178 157.677490,441.113098 165.033295,439.191193 
	C165.033295,424.681610 165.033295,410.142456 165.033295,395.599243 
	C160.418686,395.599243 156.527695,395.599243 152.164307,395.599243 
	C152.164307,399.552551 152.164307,403.157440 152.164307,407.122986 
	C149.754929,406.379059 147.914459,405.606842 145.996811,405.253204 
	C136.470459,403.496338 131.009109,408.652618 129.334381,421.651459 
M205.836166,406.396454 
	C205.836166,417.466187 205.836166,428.535889 205.836166,440.372803 
	C210.591904,438.688538 215.864471,442.942963 218.622772,436.704010 
	C223.721008,440.178497 226.331314,440.719543 231.257629,439.360657 
	C238.556259,437.347382 242.192856,430.995697 241.680237,421.156433 
	C240.962952,407.388397 233.189072,402.226929 220.191345,406.868225 
	C219.936005,406.959381 219.575806,406.756897 219.146347,406.666595 
	C218.961746,402.960876 218.775726,399.226593 218.595779,395.614258 
	C214.049820,395.614258 210.144196,395.614258 205.855911,395.614258 
	C205.855911,399.130554 205.855911,402.282532 205.836166,406.396454 
M361.742920,410.593079 
	C361.767273,414.086151 361.707977,417.582245 361.832153,421.071747 
	C362.163361,430.381317 367.403931,434.052246 376.491302,431.403992 
	C377.543640,431.097321 378.574493,430.717010 380.946808,429.927948 
	C379.518463,431.920105 378.866119,433.685547 378.126801,433.722778 
	C373.185272,433.971649 368.225189,433.852020 363.246552,433.852020 
	C362.989929,446.184998 360.490387,444.610840 374.011627,446.348206 
	C377.075256,446.741882 380.416443,446.614502 383.378632,445.806183 
	C388.965179,444.281738 394.770477,441.598907 395.621613,435.391968 
	C396.937317,425.796753 396.847778,416.008820 397.351898,406.346313 
	C391.372711,406.346313 386.495056,406.346313 381.758759,406.346313 
	C381.758759,410.886047 381.911102,415.034485 381.660370,419.158386 
	C381.590546,420.306854 380.328094,421.382812 379.612793,422.492065 
	C378.929016,421.369293 377.719879,420.275787 377.655365,419.118530 
	C377.418396,414.866913 377.561401,410.594116 377.561401,405.949677 
	C372.709198,405.949677 368.737732,406.112061 364.786835,405.896973 
	C361.765839,405.732513 361.565918,407.407593 361.742920,410.593079 
M266.219299,435.152344 
	C267.125061,436.645966 268.030823,438.139587 268.942200,439.642456 
	C272.348877,439.642456 275.929321,439.642456 280.153870,439.642456 
	C280.153870,428.283478 280.153870,417.249359 280.153870,406.222839 
	C275.187500,406.222839 270.262238,406.222839 265.043671,406.222839 
	C265.043671,410.619263 265.186157,414.751892 264.964264,418.864868 
	C264.889343,420.253632 263.890961,421.592590 263.314606,422.954315 
	C262.505371,421.612030 261.099915,420.313202 260.998413,418.919373 
	C260.690460,414.690186 260.886963,410.424255 260.886963,406.240234 
	C254.923767,406.240234 249.833511,406.240234 244.576477,406.240234 
	C244.576477,413.816071 244.400101,421.104065 244.637695,428.378540 
	C244.799423,433.330231 245.847839,438.146088 251.423126,440.019043 
	C257.122955,441.933777 261.875488,440.303253 266.219299,435.152344 
M123.569809,411.070007 
	C116.989273,403.919434 109.023598,403.984650 100.653114,406.855560 
	C93.593628,409.276733 90.603500,414.859375 90.461670,421.864716 
	C90.335518,428.095398 91.018494,434.451385 97.298714,437.941315 
	C102.818619,441.008728 108.414612,441.079620 113.406799,436.568359 
	C116.376251,443.130463 121.636734,438.580933 125.951889,440.245880 
	C126.226883,433.998901 126.862663,428.530853 126.572327,423.112396 
	C126.366158,419.264679 124.910568,415.483917 123.569809,411.070007 
M429.504547,405.811340 
	C427.920013,406.278107 426.258057,406.571777 424.763702,407.240173 
	C416.160461,411.087982 412.862549,423.062683 417.681671,432.712128 
	C421.436584,440.230713 429.958588,441.980225 438.588318,437.006226 
	C441.910645,442.390442 446.815155,439.109222 451.894409,440.085541 
	C451.894409,434.343475 451.835724,429.387360 451.905487,424.433044 
	C452.109863,409.921112 444.719788,403.462189 429.504547,405.811340 
M175.348724,407.603149 
	C173.208481,410.817474 169.895264,413.776550 169.130630,417.290192 
	C165.787598,432.652344 174.667480,441.813751 190.319412,439.858276 
	C198.453781,438.842010 200.262436,436.081970 198.099243,427.986053 
	C186.081360,428.833069 186.081360,428.833069 184.047836,425.910950 
	C190.256195,425.910950 196.180527,425.910950 202.042603,425.910950 
	C203.791397,410.151215 194.977753,402.196106 180.241333,405.802155 
	C178.798004,406.155365 177.406387,406.719818 175.348724,407.603149 
M49.771915,397.726044 
	C48.832836,396.793854 47.884651,395.056091 46.956219,395.066589 
	C42.529964,395.116608 38.109074,395.641602 33.894321,395.980896 
	C33.387291,399.588196 33.917522,404.484283 32.341190,405.297607 
	C28.603455,407.226105 30.396326,409.850037 30.175472,412.063934 
	C29.900606,414.819244 29.317463,419.122131 30.747099,420.154938 
	C34.187489,422.640411 33.207970,425.613953 33.419243,428.552277 
	C33.894634,435.163757 36.164204,438.947052 41.394043,439.560608 
	C45.823936,440.080322 50.396610,439.382935 54.872181,439.225311 
	C54.872181,434.400482 54.872181,430.780792 54.872181,427.200775 
	C49.075726,426.254700 49.075726,426.254700 49.492420,422.109467 
	C51.205959,422.000336 52.959476,421.888672 54.779716,421.772736 
	C54.779716,416.324188 54.779716,411.260223 54.779716,406.253754 
	C52.894409,405.947174 51.323601,405.691742 49.742111,405.434601 
	C49.742111,402.961304 49.742111,400.812714 49.771915,397.726044 
M61.700840,406.021118 
	C60.803307,407.026367 59.271126,407.949890 59.129120,409.052460 
	C58.728310,412.164551 58.861176,415.349976 58.850460,418.506744 
	C58.826481,425.572937 58.842960,432.639282 58.842960,440.006866 
	C61.241604,440.006866 63.715893,440.006866 66.190178,440.006866 
	C68.632607,440.006866 71.075043,440.006866 73.899635,440.006866 
	C73.899635,437.547241 73.920586,435.591034 73.896164,433.635437 
	C73.756355,422.439484 73.752403,422.442657 84.895103,423.466187 
	C85.184334,423.492798 85.497032,423.263855 86.316811,422.965759 
	C86.747101,417.628265 87.195442,412.066864 87.670181,406.178009 
	C80.424767,403.467010 75.599876,406.912750 71.292839,412.528473 
	C71.039482,410.086792 70.854935,408.308228 70.617241,406.017517 
	C67.877769,406.017517 65.258965,406.017517 61.700840,406.021118 
M455.126862,422.540405 
	C455.126862,428.282043 455.126862,434.023682 455.126862,439.689789 
	C460.817413,439.689789 466.068420,439.689789 470.772583,439.689789 
	C470.772583,428.319855 470.772583,417.280762 470.772583,406.314819 
	C465.295013,406.314819 460.687592,406.314819 455.883545,406.314819 
	C455.629700,411.585144 455.389557,416.571472 455.126862,422.540405 
M411.111542,438.581726 
	C413.555481,435.523529 413.817017,431.907135 410.850830,429.701538 
	C408.873505,428.231262 404.722870,427.560822 402.841736,428.690979 
	C401.020233,429.785309 399.980194,433.703644 400.164490,436.269012 
	C400.467926,440.493805 405.141357,441.559998 411.111542,438.581726 
M468.624969,398.471069 
	C467.050964,396.625427 465.776031,394.218811 463.784210,393.156830 
	C462.691467,392.574249 459.668274,393.778320 458.821747,395.047821 
	C457.837677,396.523499 457.603912,399.248993 458.314362,400.878387 
	C458.931183,402.293091 461.705322,404.064758 462.841003,403.676239 
	C464.981079,402.944153 466.627991,400.770508 468.624969,398.471069 
z"/>
<path fill="#FFFFFF" opacity="1.000000" stroke="none" 
	d="
M0.999993,452.468658 
	C4.245615,456.473267 6.729256,461.969238 10.959449,465.121033 
	C14.887051,468.047424 20.676519,469.797729 25.649782,469.805573 
	C175.472366,470.042328 325.295410,469.998932 475.118378,469.997833 
	C488.221497,469.997742 495.686646,464.817047 500.728668,452.215698 
	C501.000000,468.321381 501.000000,484.642731 501.000000,500.957642 
	C334.333313,500.951172 167.666656,500.951172 1.000000,500.951172 
	C1.000000,484.914032 1.000000,468.925659 0.999993,452.468658 
z"/>
<path fill="#020202" opacity="1.000000" stroke="none" 
	d="
M87.548569,322.521790 
	C82.009544,325.609344 76.771378,328.482971 70.937012,331.683655 
	C67.092453,325.291473 63.283737,318.958893 59.103264,312.008179 
	C98.938240,286.630493 138.706558,261.295258 179.011749,235.617996 
	C202.201324,258.271820 225.372055,280.907257 247.877991,302.893250 
	C292.751221,274.490875 337.116241,246.410172 381.666016,218.212540 
	C377.993591,212.338684 374.080475,206.203003 370.329712,199.969635 
	C369.635956,198.816757 369.597809,197.269394 369.257080,195.904114 
	C370.646210,195.734100 372.096161,195.215729 373.415405,195.446045 
	C395.208984,199.250732 416.977264,203.200867 438.776154,206.974442 
	C442.227142,207.571869 443.241302,208.707779 442.071747,212.256958 
	C435.264282,232.915115 428.657837,253.639420 421.933411,274.325073 
	C421.505463,275.641510 420.655884,276.820831 419.412598,279.186157 
	C414.407959,271.275879 410.012970,264.329163 405.394287,257.028931 
	C352.118042,290.020966 299.445862,323.941620 242.554291,351.004761 
	C219.705688,325.661499 196.859802,300.321228 173.813385,274.758545 
	C145.048874,290.669067 116.449158,306.488464 87.548569,322.521790 
z"/>
<path fill="#00BF63" opacity="1.000000" stroke="none" 
	d="
M183.644852,213.919495 
	C182.892151,211.979401 182.043854,210.297195 182.041138,208.613632 
	C181.968857,163.806793 181.954483,118.999702 182.095001,74.193176 
	C182.100388,72.478676 183.291916,69.944580 184.689102,69.182121 
	C203.514984,58.908562 222.473984,48.878845 241.409821,38.807156 
	C242.087219,38.446861 242.865616,38.276470 243.908661,37.907215 
	C243.908661,116.030426 243.908661,193.756592 243.908661,272.698486 
	C223.524109,252.804688 203.733704,233.490723 183.644852,213.919495 
z"/>
<path fill="#02BF64" opacity="1.000000" stroke="none" 
	d="
M275.198059,248.985703 
	C275.198029,204.354385 275.245331,160.220551 275.113403,116.087257 
	C275.102142,112.316040 276.021973,110.154930 279.542084,108.313591 
	C297.363007,98.991585 315.017853,89.352158 332.735931,79.833290 
	C334.024231,79.141167 335.352203,78.522835 337.267029,77.568527 
	C337.372101,79.644547 337.521271,81.222656 337.521698,82.800797 
	C337.534180,128.266815 337.483704,173.733002 337.622223,219.198593 
	C337.633453,222.872787 336.361511,224.778732 333.333099,226.640717 
	C314.917297,237.963654 296.637207,249.507324 278.308044,260.971313 
	C277.616180,261.404022 276.885956,261.775360 275.197998,262.723083 
	C275.197998,257.870209 275.197998,253.676773 275.198059,248.985703 
z"/>
<path fill="#01BF64" opacity="1.000000" stroke="none" 
	d="
M150.918671,205.000000 
	C150.918610,212.988174 151.033722,220.479584 150.824051,227.961884 
	C150.780655,229.510605 149.959106,231.687927 148.771698,232.457138 
	C129.385208,245.015564 109.882988,257.395325 90.395508,269.797577 
	C90.159164,269.947998 89.774986,269.866180 88.997238,269.931824 
	C88.900711,268.359222 88.722626,266.800934 88.721718,265.242554 
	C88.707008,240.115570 88.779724,214.988220 88.641449,189.862000 
	C88.622612,186.438477 89.600021,184.563293 92.728363,182.932449 
	C110.549568,173.642181 128.235062,164.091675 145.973221,154.641876 
	C147.399963,153.881821 148.875900,153.214111 150.918671,152.215118 
	C150.918671,170.034485 150.918671,187.267242 150.918671,205.000000 
z"/>
<path fill="#05C066" opacity="1.000000" stroke="none" 
	d="
M284.623505,429.952454 
	C284.327423,425.587006 283.722565,421.576416 284.080841,417.653839 
	C284.969238,407.925934 292.930847,402.925629 302.358337,405.821991 
	C303.447998,406.156799 304.519226,406.551575 305.981506,407.048492 
	C306.254852,403.045166 306.509094,399.321350 306.772766,395.459229 
	C311.019104,395.459229 314.791016,395.459229 319.252808,395.459229 
	C319.252808,410.212891 319.252808,424.755615 319.252808,439.974060 
	C314.857880,439.074768 309.920258,442.443298 306.589325,437.011993 
	C296.866486,442.603027 288.754059,440.127502 284.623505,429.952454 
M299.878265,428.657166 
	C301.259247,427.880005 302.845276,427.299347 303.894562,426.204346 
	C304.203766,425.881653 303.266907,423.595398 302.405792,423.134613 
	C301.522705,422.662048 299.048950,423.145111 298.981384,423.518951 
	C298.706299,425.041199 299.086975,426.681976 299.878265,428.657166 
z"/>
<path fill="#05C066" opacity="1.000000" stroke="none" 
	d="
M358.888855,424.993042 
	C358.881836,430.119415 358.881836,434.747192 358.881836,440.198883 
	C353.992188,438.997253 349.212128,442.358093 345.792664,437.243134 
	C343.559723,438.096649 341.225739,439.471802 338.740692,439.847260 
	C331.591461,440.927460 325.188324,436.918274 323.752075,429.820557 
	C322.819702,425.213104 322.712738,420.166290 323.518219,415.539520 
	C324.939148,407.377319 332.403046,403.356750 340.545502,405.569916 
	C341.956604,405.953491 343.334167,406.460571 345.030884,407.008667 
	C345.258850,403.120392 345.470215,399.515137 345.700409,395.588745 
	C349.899628,395.588745 353.779205,395.588745 358.895844,395.588745 
	C358.895844,405.312866 358.895844,414.903625 358.888855,424.993042 
M342.780334,424.207458 
	C341.202667,423.895630 339.607147,423.336029 338.059998,423.447571 
	C337.676971,423.475189 336.933624,425.880676 337.300598,426.826660 
	C337.655945,427.742706 339.863007,428.947815 340.153564,428.705139 
	C341.332092,427.720795 342.085907,426.227905 342.780334,424.207458 
z"/>
<path fill="#05C066" opacity="1.000000" stroke="none" 
	d="
M129.364120,421.227783 
	C131.009109,408.652618 136.470459,403.496338 145.996811,405.253204 
	C147.914459,405.606842 149.754929,406.379059 152.164307,407.122986 
	C152.164307,403.157440 152.164307,399.552551 152.164307,395.599243 
	C156.527695,395.599243 160.418686,395.599243 165.033295,395.599243 
	C165.033295,410.142456 165.033295,424.681610 165.033295,439.191193 
	C157.677490,441.113098 154.279541,440.426178 152.793259,436.768616 
	C139.457047,444.315826 130.143799,438.314270 129.364120,421.227783 
M144.335541,427.722717 
	C145.912476,427.727173 147.573822,428.009430 149.016205,427.571136 
	C149.463837,427.435059 149.808243,425.038177 149.306717,424.231964 
	C148.788925,423.399597 146.489380,422.586639 146.181870,422.911835 
	C145.162292,423.990021 144.688828,425.584717 144.335541,427.722717 
z"/>
<path fill="#04C066" opacity="1.000000" stroke="none" 
	d="
M205.846039,405.915466 
	C205.855911,402.282532 205.855911,399.130554 205.855911,395.614258 
	C210.144196,395.614258 214.049820,395.614258 218.595779,395.614258 
	C218.775726,399.226593 218.961746,402.960876 219.146347,406.666595 
	C219.575806,406.756897 219.936005,406.959381 220.191345,406.868225 
	C233.189072,402.226929 240.962952,407.388397 241.680237,421.156433 
	C242.192856,430.995697 238.556259,437.347382 231.257629,439.360657 
	C226.331314,440.719543 223.721008,440.178497 218.622772,436.704010 
	C215.864471,442.942963 210.591904,438.688538 205.836166,440.372803 
	C205.836166,428.535889 205.836166,417.466187 205.846039,405.915466 
M221.742096,423.919373 
	C222.132584,425.435699 222.270065,427.110168 223.061371,428.375885 
	C223.312164,428.777039 225.750061,428.488342 226.384064,427.788177 
	C227.063431,427.037903 227.256989,424.567719 226.858261,424.354828 
	C225.517624,423.639191 223.818924,423.594330 221.742096,423.919373 
z"/>
<path fill="#03C065" opacity="1.000000" stroke="none" 
	d="
M361.743164,410.105316 
	C361.565918,407.407593 361.765839,405.732513 364.786835,405.896973 
	C368.737732,406.112061 372.709198,405.949677 377.561401,405.949677 
	C377.561401,410.594116 377.418396,414.866913 377.655365,419.118530 
	C377.719879,420.275787 378.929016,421.369293 379.612793,422.492065 
	C380.328094,421.382812 381.590546,420.306854 381.660370,419.158386 
	C381.911102,415.034485 381.758759,410.886047 381.758759,406.346313 
	C386.495056,406.346313 391.372711,406.346313 397.351898,406.346313 
	C396.847778,416.008820 396.937317,425.796753 395.621613,435.391968 
	C394.770477,441.598907 388.965179,444.281738 383.378632,445.806183 
	C380.416443,446.614502 377.075256,446.741882 374.011627,446.348206 
	C360.490387,444.610840 362.989929,446.184998 363.246552,433.852020 
	C368.225189,433.852020 373.185272,433.971649 378.126801,433.722778 
	C378.866119,433.685547 379.518463,431.920105 380.946808,429.927948 
	C378.574493,430.717010 377.543640,431.097321 376.491302,431.403992 
	C367.403931,434.052246 362.163361,430.381317 361.832153,421.071747 
	C361.707977,417.582245 361.767273,414.086151 361.743164,410.105316 
z"/>
<path fill="#04C066" opacity="1.000000" stroke="none" 
	d="
M265.965637,435.461243 
	C261.875488,440.303253 257.122955,441.933777 251.423126,440.019043 
	C245.847839,438.146088 244.799423,433.330231 244.637695,428.378540 
	C244.400101,421.104065 244.576477,413.816071 244.576477,406.240234 
	C249.833511,406.240234 254.923767,406.240234 260.886963,406.240234 
	C260.886963,410.424255 260.690460,414.690186 260.998413,418.919373 
	C261.099915,420.313202 262.505371,421.612030 263.314606,422.954315 
	C263.890961,421.592590 264.889343,420.253632 264.964264,418.864868 
	C265.186157,414.751892 265.043671,410.619263 265.043671,406.222839 
	C270.262238,406.222839 275.187500,406.222839 280.153870,406.222839 
	C280.153870,417.249359 280.153870,428.283478 280.153870,439.642456 
	C275.929321,439.642456 272.348877,439.642456 268.942200,439.642456 
	C268.030823,438.139587 267.125061,436.645966 265.965637,435.461243 
z"/>
<path fill="#04C066" opacity="1.000000" stroke="none" 
	d="
M123.791214,411.371643 
	C124.910568,415.483917 126.366158,419.264679 126.572327,423.112396 
	C126.862663,428.530853 126.226883,433.998901 125.951889,440.245880 
	C121.636734,438.580933 116.376251,443.130463 113.406799,436.568359 
	C108.414612,441.079620 102.818619,441.008728 97.298714,437.941315 
	C91.018494,434.451385 90.335518,428.095398 90.461670,421.864716 
	C90.603500,414.859375 93.593628,409.276733 100.653114,406.855560 
	C109.023598,403.984650 116.989273,403.919434 123.791214,411.371643 
M105.006798,426.989960 
	C106.492661,427.414612 107.992859,428.154480 109.456406,428.087952 
	C109.949211,428.065552 110.899277,425.838837 110.634438,424.904846 
	C110.375992,423.993408 108.365601,422.643677 107.941727,422.890442 
	C106.695396,423.615997 105.854927,425.038727 105.006798,426.989960 
z"/>
<path fill="#04C065" opacity="1.000000" stroke="none" 
	d="
M429.909973,405.717163 
	C444.719788,403.462189 452.109863,409.921112 451.905487,424.433044 
	C451.835724,429.387360 451.894409,434.343475 451.894409,440.085541 
	C446.815155,439.109222 441.910645,442.390442 438.588501,437.005249 
	C429.958588,441.980225 421.436584,440.230713 417.681671,432.712128 
	C412.862549,423.062683 416.160461,411.087982 424.763702,407.240173 
	C426.258057,406.571777 427.920013,406.278107 429.909973,405.717163 
M431.877136,428.660187 
	C433.259399,427.882263 434.847015,427.301086 435.897125,426.204895 
	C436.206726,425.881744 435.269104,423.593323 434.407196,423.132050 
	C433.523254,422.659058 431.046906,423.142548 430.979309,423.516632 
	C430.704071,425.040436 431.085114,426.682831 431.877136,428.660187 
z"/>
<path fill="#04C066" opacity="1.000000" stroke="none" 
	d="
M175.669739,407.394653 
	C177.406387,406.719818 178.798004,406.155365 180.241333,405.802155 
	C194.977753,402.196106 203.791397,410.151215 202.042603,425.910950 
	C196.180527,425.910950 190.256195,425.910950 184.047836,425.910950 
	C186.081360,428.833069 186.081360,428.833069 198.099243,427.986053 
	C200.262436,436.081970 198.453781,438.842010 190.319412,439.858276 
	C174.667480,441.813751 165.787598,432.652344 169.130630,417.290192 
	C169.895264,413.776550 173.208481,410.817474 175.669739,407.394653 
z"/>
<path fill="#04C066" opacity="1.000000" stroke="none" 
	d="
M49.757011,398.195099 
	C49.742111,400.812714 49.742111,402.961304 49.742111,405.434601 
	C51.323601,405.691742 52.894409,405.947174 54.779716,406.253754 
	C54.779716,411.260223 54.779716,416.324188 54.779716,421.772736 
	C52.959476,421.888672 51.205959,422.000336 49.492420,422.109467 
	C49.075726,426.254700 49.075726,426.254700 54.872181,427.200775 
	C54.872181,430.780792 54.872181,434.400482 54.872181,439.225311 
	C50.396610,439.382935 45.823936,440.080322 41.394043,439.560608 
	C36.164204,438.947052 33.894634,435.163757 33.419243,428.552277 
	C33.207970,425.613953 34.187489,422.640411 30.747099,420.154938 
	C29.317463,419.122131 29.900606,414.819244 30.175472,412.063934 
	C30.396326,409.850037 28.603455,407.226105 32.341190,405.297607 
	C33.917522,404.484283 33.387291,399.588196 33.894321,395.980896 
	C38.109074,395.641602 42.529964,395.116608 46.956219,395.066589 
	C47.884651,395.056091 48.832836,396.793854 49.757011,398.195099 
z"/>
<path fill="#04C066" opacity="1.000000" stroke="none" 
	d="
M62.170502,406.019318 
	C65.258965,406.017517 67.877769,406.017517 70.617241,406.017517 
	C70.854935,408.308228 71.039482,410.086792 71.292839,412.528473 
	C75.599876,406.912750 80.424767,403.467010 87.670181,406.178009 
	C87.195442,412.066864 86.747101,417.628265 86.316811,422.965759 
	C85.497032,423.263855 85.184334,423.492798 84.895103,423.466187 
	C73.752403,422.442657 73.756355,422.439484 73.896164,433.635437 
	C73.920586,435.591034 73.899635,437.547241 73.899635,440.006866 
	C71.075043,440.006866 68.632607,440.006866 66.190178,440.006866 
	C63.715893,440.006866 61.241604,440.006866 58.842960,440.006866 
	C58.842960,432.639282 58.826481,425.572937 58.850460,418.506744 
	C58.861176,415.349976 58.728310,412.164551 59.129120,409.052460 
	C59.271126,407.949890 60.803307,407.026367 62.170502,406.019318 
z"/>
<path fill="#04C065" opacity="1.000000" stroke="none" 
	d="
M455.138123,422.049103 
	C455.389557,416.571472 455.629700,411.585144 455.883545,406.314819 
	C460.687592,406.314819 465.295013,406.314819 470.772583,406.314819 
	C470.772583,417.280762 470.772583,428.319855 470.772583,439.689789 
	C466.068420,439.689789 460.817413,439.689789 455.126862,439.689789 
	C455.126862,434.023682 455.126862,428.282043 455.138123,422.049103 
z"/>
<path fill="#08C168" opacity="1.000000" stroke="none" 
	d="
M410.840759,438.846680 
	C405.141357,441.559998 400.467926,440.493805 400.164490,436.269012 
	C399.980194,433.703644 401.020233,429.785309 402.841736,428.690979 
	C404.722870,427.560822 408.873505,428.231262 410.850830,429.701538 
	C413.817017,431.907135 413.555481,435.523529 410.840759,438.846680 
z"/>
<path fill="#0BC26A" opacity="1.000000" stroke="none" 
	d="
M468.552429,398.833557 
	C466.627991,400.770508 464.981079,402.944153 462.841003,403.676239 
	C461.705322,404.064758 458.931183,402.293091 458.314362,400.878387 
	C457.603912,399.248993 457.837677,396.523499 458.821747,395.047821 
	C459.668274,393.778320 462.691467,392.574249 463.784210,393.156830 
	C465.776031,394.218811 467.050964,396.625427 468.552429,398.833557 
z"/>
<path fill="#CDF3E0" opacity="1.000000" stroke="none" 
	d="
M299.552124,428.468109 
	C299.086975,426.681976 298.706299,425.041199 298.981384,423.518951 
	C299.048950,423.145111 301.522705,422.662048 302.405792,423.134613 
	C303.266907,423.595398 304.203766,425.881653 303.894562,426.204346 
	C302.845276,427.299347 301.259247,427.880005 299.552124,428.468109 
z"/>
<path fill="#CDF3E0" opacity="1.000000" stroke="none" 
	d="
M342.888367,424.565033 
	C342.085907,426.227905 341.332092,427.720795 340.153564,428.705139 
	C339.863007,428.947815 337.655945,427.742706 337.300598,426.826660 
	C336.933624,425.880676 337.676971,423.475189 338.059998,423.447571 
	C339.607147,423.336029 341.202667,423.895630 342.888367,424.565033 
z"/>
<path fill="#CEF3E1" opacity="1.000000" stroke="none" 
	d="
M144.170715,427.351990 
	C144.688828,425.584717 145.162292,423.990021 146.181870,422.911835 
	C146.489380,422.586639 148.788925,423.399597 149.306717,424.231964 
	C149.808243,425.038177 149.463837,427.435059 149.016205,427.571136 
	C147.573822,428.009430 145.912476,427.727173 144.170715,427.351990 
z"/>
<path fill="#CEF3E1" opacity="1.000000" stroke="none" 
	d="
M221.999664,423.606079 
	C223.818924,423.594330 225.517624,423.639191 226.858261,424.354828 
	C227.256989,424.567719 227.063431,427.037903 226.384064,427.788177 
	C225.750061,428.488342 223.312164,428.777039 223.061371,428.375885 
	C222.270065,427.110168 222.132584,425.435699 221.999664,423.606079 
z"/>
<path fill="#CEF3E1" opacity="1.000000" stroke="none" 
	d="
M104.931183,426.589233 
	C105.854927,425.038727 106.695396,423.615997 107.941727,422.890442 
	C108.365601,422.643677 110.375992,423.993408 110.634438,424.904846 
	C110.899277,425.838837 109.949211,428.065552 109.456406,428.087952 
	C107.992859,428.154480 106.492661,427.414612 104.931183,426.589233 
z"/>
<path fill="#CDF3E0" opacity="1.000000" stroke="none" 
	d="
M431.550720,428.470825 
	C431.085114,426.682831 430.704071,425.040436 430.979309,423.516632 
	C431.046906,423.142548 433.523254,422.659058 434.407196,423.132050 
	C435.269104,423.593323 436.206726,425.881744 435.897125,426.204895 
	C434.847015,427.301086 433.259399,427.882263 431.550720,428.470825 
z"/>
</svg>